<svg width="15" height="15" viewBox="0 0 15 15" fill="none" xmlns="http://www.w3.org/2000/svg">
<path d="M6.14583 6.14583L2.35417 6.14583C1.60628 6.14583 1 6.75211 1 7.5C1 8.24789 1.60628 8.85417 2.35417 8.85417H6.14583V12.6458C6.14583 13.3937 6.75211 14 7.5 14C8.24789 14 8.85417 13.3937 8.85417 12.6458V8.85417L12.6458 8.85417C13.3937 8.85417 14 8.24788 14 7.5C14 6.75211 13.3937 6.14583 12.6458 6.14583L8.85417 6.14583V2.35417C8.85417 1.60628 8.24789 1 7.5 1C6.75211 1 6.14583 1.60628 6.14583 2.35417V6.14583Z" fill="#FFFBFF" stroke="black" stroke-linejoin="round"/>
</svg>
