<svg width="12" height="13" viewBox="0 0 12 13" fill="none" xmlns="http://www.w3.org/2000/svg">
<path d="M3.5 1H1.6C0.716344 1 0 1.71634 0 2.6C0 2.82091 0.179086 3 0.4 3H11.6C11.8209 3 12 2.82091 12 2.6C12 1.71634 11.2837 1 10.4 1H8.5C8.22386 1 8 0.776142 8 0.5C8 0.223858 7.77614 0 7.5 0H4.5C4.22386 0 4 0.223858 4 0.5C4 0.776142 3.77614 1 3.5 1Z" fill="black"/>
<path d="M11 4H1L1.74928 12.0922C1.7969 12.6066 2.22845 13 2.74502 13H8.87929C9.37842 13 9.80112 12.632 9.86978 12.1376L11 4Z" fill="black"/>
</svg>
