<svg width="15" height="15" viewBox="0 0 15 15" fill="none" xmlns="http://www.w3.org/2000/svg">
<path d="M1.84358 11.7425L2.1886 8.86742C2.21345 8.6603 2.46609 8.57292 2.61359 8.72043L5.4217 11.5285C5.56921 11.676 5.48184 11.9287 5.27471 11.9535L2.39959 12.2985C2.07788 12.3372 1.80498 12.0643 1.84358 11.7425Z" fill="black"/>
<path d="M6.07469 10.8959L3.24626 8.06745C3.051 7.87218 3.051 7.5556 3.24626 7.36034L8.0353 2.5713L11.5708 6.10683L6.78179 10.8959C6.58653 11.0911 6.26995 11.0911 6.07469 10.8959Z" fill="black"/>
<path d="M12.2137 5.46401L8.67812 1.92847L9.32095 1.28565C10.031 0.575605 11.1822 0.575604 11.8922 1.28565L12.8565 2.24989C13.5665 2.95993 13.5665 4.11114 12.8565 4.82118L12.2137 5.46401Z" fill="black"/>
</svg>
