<svg width="22" height="22" viewBox="0 0 22 22" fill="none" xmlns="http://www.w3.org/2000/svg">
<path fill-rule="evenodd" clip-rule="evenodd" d="M11 21C16.5228 21 21 16.5228 21 11C21 5.47715 16.5228 1 11 1C5.47715 1 1 5.47715 1 11C1 16.5228 5.47715 21 11 21ZM11 11.75C13.2091 11.75 15 9.95914 15 7.75C15 5.54086 13.2091 3.75 11 3.75C8.79086 3.75 7 5.54086 7 7.75C7 9.95914 8.79086 11.75 11 11.75Z" fill="white"/>
<path d="M3.74483 17.2252C3.59306 17.3661 3.58428 17.6034 3.7252 17.7552C3.86613 17.9069 4.1034 17.9157 4.25517 17.7748L3.74483 17.2252ZM7.59775 14.1592L7.85292 14.434L7.85292 14.434L7.59775 14.1592ZM14.4023 14.1592L14.1471 14.434L14.1471 14.434L14.4023 14.1592ZM17.7448 17.7748C17.8966 17.9157 18.1339 17.9069 18.2748 17.7552C18.4157 17.6034 18.4069 17.3661 18.2552 17.2252L17.7448 17.7748ZM20.625 11C20.625 16.3157 16.3157 20.625 11 20.625V21.375C16.73 21.375 21.375 16.73 21.375 11H20.625ZM11 1.375C16.3157 1.375 20.625 5.68426 20.625 11H21.375C21.375 5.27005 16.73 0.625 11 0.625V1.375ZM1.375 11C1.375 5.68426 5.68426 1.375 11 1.375V0.625C5.27005 0.625 0.625 5.27005 0.625 11H1.375ZM11 20.625C5.68426 20.625 1.375 16.3157 1.375 11H0.625C0.625 16.73 5.27005 21.375 11 21.375V20.625ZM14.625 7.75C14.625 9.75203 13.002 11.375 11 11.375V12.125C13.4162 12.125 15.375 10.1662 15.375 7.75H14.625ZM11 4.125C13.002 4.125 14.625 5.74797 14.625 7.75H15.375C15.375 5.33375 13.4162 3.375 11 3.375V4.125ZM7.375 7.75C7.375 5.74797 8.99797 4.125 11 4.125V3.375C8.58375 3.375 6.625 5.33375 6.625 7.75H7.375ZM11 11.375C8.99797 11.375 7.375 9.75203 7.375 7.75H6.625C6.625 10.1662 8.58375 12.125 11 12.125V11.375ZM4.25517 17.7748L7.85292 14.434L7.34258 13.8844L3.74483 17.2252L4.25517 17.7748ZM14.1471 14.434L17.7448 17.7748L18.2552 17.2252L14.6574 13.8844L14.1471 14.434ZM7.85292 14.434C9.62744 12.7863 12.3726 12.7863 14.1471 14.434L14.6574 13.8844C12.5951 11.9695 9.40486 11.9695 7.34258 13.8844L7.85292 14.434Z" fill="black"/>
</svg>
